<svg width="246" height="105" viewBox="0 0 246 105" fill="none" xmlns="http://www.w3.org/2000/svg">
    <defs>
        <clipPath id="clip0_506_4266">
            <rect width="246" height="105" fill="white"/>
        </clipPath>
    </defs>
    <g clip-path="url(#clip0_506_4266)">
        <path d="M139.713 0L139.698 37.9885L105.521 0.092112L105.499 55.6894H155.588L155.603 0.007676L139.713 0Z" fill="#FDBC47"/>
        <path d="M245.969 39.6465H190.445V55.5895H245.969V39.6465Z" fill="#F0575F"/>
        <path d="M5.80958 54.1388C20.1536 59.1743 35.8525 51.5981 40.8737 37.2132C45.8796 22.8745 38.3861 7.18474 24.1262 2.09555L18.1865 0L0 52.0893C0 52.0893 5.67945 54.0928 5.80958 54.1388Z" fill="#428EC9"/>
        <path d="M65.5051 27.8563H65.4285C73.0981 27.8563 79.3133 21.6234 79.3133 13.9321C79.3133 6.26375 73.144 0.0461925 65.5051 0.0078125H62.3285H45.627L45.604 55.6895C45.604 55.6895 65.3749 55.6972 65.4209 55.6972C73.0904 55.6972 79.3057 49.472 79.3057 41.7806C79.3057 34.1123 73.1363 27.8947 65.4974 27.8563H65.5051Z" fill="#73C9BB"/>
        <path d="M246 83.0468L244.033 80.0302L237.588 85.1961L239.004 87.3147L246 83.0545V83.0468ZM27.1802 88.704C22.3198 88.704 19.4571 92.0354 19.4571 97.1169C19.4571 102.198 21.9983 104.946 26.9736 104.946C30.6782 104.946 33.5639 102.513 33.5639 102.513L32.3239 100.103C32.3239 100.103 29.8669 101.469 27.4634 101.469C25.4657 101.469 24.1415 100.103 23.9654 97.7847H33.5639C33.5639 97.7003 33.7399 96.6257 33.7399 95.5203C33.7399 91.3753 31.4819 88.704 27.1726 88.704H27.1802ZM24.0267 95.0828C24.2563 93.371 25.2667 92.1813 26.8894 92.1813C28.5121 92.1813 29.2622 93.4248 29.2622 95.0828H24.0267ZM43.744 101.607C42.527 101.607 42.2132 100.855 42.2132 98.9976V92.6188H46.2623V89.4256H42.2132V84.6434L37.8732 85.4264V89.4256L35.1866 89.8017V92.6188H37.8732V99.2892C37.8732 102.621 38.83 104.946 42.1519 104.946C44.0349 104.946 45.6499 104.194 47.066 103.15L46.025 100.947C45.6499 101.147 44.5248 101.615 43.744 101.615V101.607ZM52.7071 93.371C52.7071 92.4115 53.4573 91.8896 54.7049 91.8896C55.8607 91.8896 56.7027 92.1813 56.7027 92.1813L57.139 93.9237H59.596L59.7108 89.5714C59.7108 89.5714 56.9323 88.704 54.3298 88.704C51.2681 88.704 48.3748 90.0397 48.3748 93.6627C48.3748 98.8287 56.098 97.9536 56.098 100.333C56.098 101.262 55.3172 101.753 53.7252 101.753C52.3091 101.753 51.2988 101.462 51.2988 101.462L51.0691 99.5733H48.4667V104.302C48.4667 104.302 51.0385 104.939 53.7864 104.939C57.7513 104.939 60.4379 103.05 60.4379 99.7191C60.4379 94.699 52.7148 95.7199 52.7148 93.371H52.7071ZM15.5534 82.1794L8.90186 82.4097V84.7279L11.2134 85.3036V88.9881C10.5781 88.8422 9.73618 88.6964 9.04729 88.6964C3.75821 88.6964 1.15576 91.7437 1.15576 97.1937C1.15576 101.976 3.03871 104.939 7.08781 104.939C9.57544 104.939 11.0527 103.519 11.4584 103.112L11.7186 104.647L17.8803 104.448V102.129L15.5687 101.546V82.1718L15.5534 82.1794ZM11.2134 99.8112C11.2134 99.8112 10.2567 101.462 8.41199 101.462C6.44485 101.462 5.6335 99.8956 5.6335 96.9634C5.6335 94.0312 6.49843 92.1813 8.95544 92.1813C9.79741 92.1813 10.6623 92.3578 11.2134 92.6188V99.8112V99.8112ZM70.4267 101.607C69.2097 101.607 68.8959 100.855 68.8959 98.9976V92.6188H72.945V89.4256H68.8959V84.6434L64.5559 85.4264V89.4256L61.8693 89.8017V92.6188H64.5559V99.2892C64.5559 102.621 65.5127 104.946 68.8347 104.946C70.7176 104.946 72.3326 104.194 73.7487 103.15L72.7077 100.947C72.3326 101.147 71.2075 101.615 70.4267 101.615V101.607ZM220.749 86.8464C221.935 86.8464 223.175 85.9176 223.175 84.2059C223.175 82.379 222.249 81.5961 220.749 81.5961C219.447 81.5961 218.261 82.5556 218.261 84.2059C218.261 85.8562 219.187 86.8464 220.749 86.8464ZM196.607 82.9854L194.64 79.9688L188.195 85.127L189.611 87.2456L196.607 82.9854ZM28.0375 86.9616L32.5765 82.4404L31.191 80.7594L26.7057 84.1829L22.1973 80.7901L20.6358 82.4404L25.4657 87.1074L28.0375 86.9616ZM206.726 93.371C206.726 92.4115 207.476 91.8896 208.724 91.8896C209.88 91.8896 210.721 92.1813 210.721 92.1813L211.158 93.9237H213.615L213.73 89.5714C213.73 89.5714 210.951 88.704 208.349 88.704C205.287 88.704 202.394 90.0397 202.394 93.6627C202.394 98.8287 210.117 97.9536 210.117 100.333C210.117 101.262 209.336 101.753 207.744 101.753C206.328 101.753 205.318 101.462 205.318 101.462L205.088 99.5733H202.486V104.302C202.486 104.302 205.057 104.939 207.805 104.939C211.77 104.939 214.457 103.05 214.457 99.7191C214.457 94.699 206.734 95.7199 206.734 93.371H206.726ZM83.638 91.4597L85.3143 91.8358L82.773 100.302L80.14 91.7437L81.7627 91.452V88.9881L74.185 89.1339V91.452L75.5704 91.9126L80.14 104.647H84.9086L89.5624 91.8282L91.208 91.452V88.9881L83.6303 89.1339V91.452L83.638 91.4597ZM198.482 94.4457C198.482 90.2392 196.806 88.704 192.413 88.704C189.634 88.704 186.136 89.8631 186.136 89.8631L186.335 94.154H188.938L189.374 92.3271C189.374 92.3271 190.445 91.8896 191.915 91.8896C193.385 91.8896 194.142 92.5267 194.142 94.0082V95.6048H192.122C187.728 95.6048 185.149 96.9711 185.149 100.387C185.149 103.288 186.856 104.939 189.657 104.939C192.114 104.939 194.341 102.766 194.341 102.766L194.862 104.655L200.649 104.455V102.137L198.482 101.615V94.4534V94.4457ZM194.142 100.011C194.142 100.011 192.581 101.692 191.05 101.692C189.948 101.692 189.343 101.055 189.343 99.9494C189.343 98.6445 190.239 98.0611 192.497 98.0611H194.142V100.003V100.011ZM233.263 82.1718L226.581 82.402V84.7202L228.893 85.2959V101.592L226.581 102.314V104.632H235.866V102.314L233.263 101.592V82.1641V82.1718ZM181.245 93.916C181.245 90.7535 179.653 88.7501 176.851 88.7501C174.28 88.7501 171.532 90.9838 171.532 90.9838L171.333 88.9804L165.202 89.1262V91.4444L167.513 92.1659V101.592L165.202 102.314V104.632H173.445V102.314L171.853 101.592V94.0235C171.853 94.0235 173.154 92.3732 174.946 92.3732C176.163 92.3732 176.913 93.3634 176.913 94.6913V101.592L175.321 102.314V104.632H183.273V102.314L181.253 101.592V93.9084L181.245 93.916ZM243.581 88.9881L237.014 89.2183V91.5365L239.325 92.1199V101.6L237.014 102.321V104.639H245.602V102.321L243.581 101.6V88.9881V88.9881ZM223.114 88.9881L216.462 89.1339V91.452L218.774 92.1736V101.6L216.462 102.321V104.639H225.134V102.321L223.114 101.6V88.9881V88.9881ZM153.429 101.462H149.204L156.43 91.69V88.9957H144.283V94.2998H146.885L147.321 92.1813H151.286L143.938 101.984V104.655H156.514V98.9976H153.912L153.422 101.462H153.429ZM92.9149 85.1961L94.331 87.3147L101.327 83.0545L99.3598 80.0378L92.9073 85.2038L92.9149 85.1961ZM98.9312 88.9957L92.3638 89.226V91.5442L94.6754 92.1275V101.607L92.3638 102.329V104.647H100.952V102.329L98.9312 101.607V88.9957V88.9957ZM119.406 88.704C117.21 88.704 115.763 89.8631 115.273 90.2392V82.1794L108.767 82.4097V84.7279L110.933 85.3036V104.355C110.933 104.355 113.765 104.993 116.949 104.993C122.499 104.993 125.338 101.83 125.338 96.38C125.338 91.5058 123.287 88.6964 119.406 88.6964V88.704ZM117.409 101.523C115.931 101.523 115.265 101.293 115.265 101.293V93.4939C115.265 93.4939 116.276 92.1889 118.013 92.1889C120.034 92.1889 120.845 93.7856 120.845 96.6871C120.845 99.5886 119.919 101.531 117.401 101.531L117.409 101.523ZM135.22 88.704C130.36 88.704 127.497 92.0354 127.497 97.1169C127.497 102.198 130.046 104.946 135.013 104.946C138.718 104.946 141.604 102.513 141.604 102.513L140.364 100.103C140.364 100.103 137.907 101.469 135.503 101.469C133.505 101.469 132.181 100.103 132.005 97.7847H141.604C141.604 97.7003 141.78 96.6257 141.78 95.5203C141.78 91.3753 139.522 88.704 135.212 88.704H135.22ZM132.066 95.0828C132.296 93.371 133.306 92.1813 134.929 92.1813C136.552 92.1813 137.302 93.4248 137.302 95.0828H132.066Z" fill="#9B9B9B"/>
    </g>
</svg>
