<svg width="375" height="812" viewBox="0 0 375 812" fill="none" xmlns="http://www.w3.org/2000/svg">
    <defs>
        <linearGradient id="paint0_linear_506_4259" x1="399" y1="391.081" x2="289" y2="391.081" gradientUnits="userSpaceOnUse">
            <stop stop-color="white"/>
            <stop offset="1" stop-color="white" stop-opacity="0"/>
        </linearGradient>
        <linearGradient id="paint1_linear_506_4259" x1="136" y1="46.0811" x2="26" y2="46.0811" gradientUnits="userSpaceOnUse">
            <stop stop-color="white"/>
            <stop offset="1" stop-color="white" stop-opacity="0"/>
        </linearGradient>
        <linearGradient id="paint2_linear_506_4259" x1="439" y1="367.342" x2="329" y2="367.342" gradientUnits="userSpaceOnUse">
            <stop stop-color="white"/>
            <stop offset="1" stop-color="white" stop-opacity="0"/>
        </linearGradient>
        <clipPath id="clip0_506_4259">
            <rect width="375" height="812" fill="white"/>
        </clipPath>
        <clipPath id="clip1_506_4259">
            <rect width="246" height="105" fill="white" transform="translate(65 325)"/>
        </clipPath>
    </defs>

    <g clip-path="url(#clip0_506_4259)">
        <rect width="375" height="812" fill="white"/>
        <path d="M513.991 646.21C513.951 737.42 440.181 811.33 349.201 811.29C258.231 811.26 184.511 737.29 184.541 646.08C184.581 554.88 258.361 480.97 349.331 481C440.301 481.04 514.031 555.01 513.991 646.21Z" fill="#77C5B8"/>
        <path d="M242.111 733.499C176.801 672.549 74.4413 676.079 13.4913 741.389C-47.2787 806.509 -43.9287 908.439 20.8113 969.449L47.7913 994.729L268.511 758.219C268.511 758.219 242.661 734.019 242.101 733.489" fill="#428EC9"/>
        <path d="M49.3379 -263L-166 540.65L295.649 -197.001L49.3379 -263Z" fill="#EB5760"/>
        <path d="M227.928 0L178 114.214L420 219V62.2702L415.175 63.3125L377.248 0H227.928Z" fill="#FEBD49"/>
        <rect x="263" y="345" width="444" height="93" fill="url(#paint0_linear_506_4259)"/>
        <rect width="444" height="93" transform="matrix(-1 0 0 1 111 348)" fill="url(#paint1_linear_506_4259)"/>
        <g clip-path="url(#clip1_506_4259)">
            <path d="M204.713 325L204.698 362.989L170.521 325.092L170.499 380.689H220.588L220.603 325.008L204.713 325Z" fill="#FDBC47"/>
            <path d="M310.969 364.646H255.445V380.59H310.969V364.646Z" fill="#F0575F"/>
            <path d="M70.8096 379.139C85.1536 384.174 100.853 376.598 105.874 362.213C110.88 347.874 103.386 332.185 89.1262 327.096L83.1865 325L65 377.089C65 377.089 70.6795 379.093 70.8096 379.139Z" fill="#428EC9"/>
            <path d="M130.505 352.856H130.429C138.098 352.856 144.313 346.623 144.313 338.932C144.313 331.264 138.144 325.046 130.505 325.008H127.329H110.627L110.604 380.69C110.604 380.69 130.375 380.697 130.421 380.697C138.09 380.697 144.306 374.472 144.306 366.781C144.306 359.112 138.136 352.895 130.497 352.856H130.505Z" fill="#73C9BB"/>
            <path d="M311 408.047L309.033 405.03L302.588 410.196L304.004 412.315L311 408.054V408.047ZM92.1802 413.704C87.3198 413.704 84.4571 417.035 84.4571 422.117C84.4571 427.198 86.9983 429.946 91.9736 429.946C95.6782 429.946 98.5639 427.513 98.5639 427.513L97.3239 425.103C97.3239 425.103 94.8669 426.469 92.4634 426.469C90.4657 426.469 89.1415 425.103 88.9654 422.785H98.5639C98.5639 422.7 98.7399 421.626 98.7399 420.52C98.7399 416.375 96.4819 413.704 92.1726 413.704H92.1802ZM89.0267 420.083C89.2563 418.371 90.2667 417.181 91.8894 417.181C93.5121 417.181 94.2622 418.425 94.2622 420.083H89.0267ZM108.744 426.607C107.527 426.607 107.213 425.855 107.213 423.998V417.619H111.262V414.426H107.213V409.643L102.873 410.426V414.426L100.187 414.802V417.619H102.873V424.289C102.873 427.621 103.83 429.946 107.152 429.946C109.035 429.946 110.65 429.194 112.066 428.15L111.025 425.947C110.65 426.147 109.525 426.615 108.744 426.615V426.607ZM117.707 418.371C117.707 417.412 118.457 416.89 119.705 416.89C120.861 416.89 121.703 417.181 121.703 417.181L122.139 418.924H124.596L124.711 414.571C124.711 414.571 121.932 413.704 119.33 413.704C116.268 413.704 113.375 415.04 113.375 418.663C113.375 423.829 121.098 422.954 121.098 425.333C121.098 426.262 120.317 426.753 118.725 426.753C117.309 426.753 116.299 426.462 116.299 426.462L116.069 424.573H113.467V429.302C113.467 429.302 116.039 429.939 118.786 429.939C122.751 429.939 125.438 428.05 125.438 424.719C125.438 419.699 117.715 420.72 117.715 418.371H117.707ZM80.5534 407.179L73.9019 407.41V409.728L76.2134 410.304V413.988C75.5781 413.842 74.7362 413.696 74.0473 413.696C68.7582 413.696 66.1558 416.744 66.1558 422.194C66.1558 426.976 68.0387 429.939 72.0878 429.939C74.5754 429.939 76.0527 428.519 76.4584 428.112L76.7186 429.647L82.8803 429.448V427.129L80.5687 426.546V407.172L80.5534 407.179ZM76.2134 424.811C76.2134 424.811 75.2567 426.462 73.412 426.462C71.4448 426.462 70.6335 424.896 70.6335 421.963C70.6335 419.031 71.4984 417.181 73.9554 417.181C74.7974 417.181 75.6623 417.358 76.2134 417.619V424.811V424.811ZM135.427 426.607C134.21 426.607 133.896 425.855 133.896 423.998V417.619H137.945V414.426H133.896V409.643L129.556 410.426V414.426L126.869 414.802V417.619H129.556V424.289C129.556 427.621 130.513 429.946 133.835 429.946C135.718 429.946 137.333 429.194 138.749 428.15L137.708 425.947C137.333 426.147 136.207 426.615 135.427 426.615V426.607ZM285.749 411.846C286.935 411.846 288.175 410.918 288.175 409.206C288.175 407.379 287.249 406.596 285.749 406.596C284.447 406.596 283.261 407.556 283.261 409.206C283.261 410.856 284.187 411.846 285.749 411.846ZM261.607 407.985L259.64 404.969L253.195 410.127L254.611 412.246L261.607 407.985ZM93.0375 411.962L97.5765 407.44L96.191 405.759L91.7057 409.183L87.1973 405.79L85.6358 407.44L90.4657 412.107L93.0375 411.962ZM271.726 418.371C271.726 417.412 272.476 416.89 273.724 416.89C274.88 416.89 275.721 417.181 275.721 417.181L276.158 418.924H278.615L278.73 414.571C278.73 414.571 275.951 413.704 273.349 413.704C270.287 413.704 267.394 415.04 267.394 418.663C267.394 423.829 275.117 422.954 275.117 425.333C275.117 426.262 274.336 426.753 272.744 426.753C271.328 426.753 270.318 426.462 270.318 426.462L270.088 424.573H267.486V429.302C267.486 429.302 270.057 429.939 272.805 429.939C276.77 429.939 279.457 428.05 279.457 424.719C279.457 419.699 271.734 420.72 271.734 418.371H271.726ZM148.638 416.46L150.314 416.836L147.773 425.302L145.14 416.744L146.763 416.452V413.988L139.185 414.134V416.452L140.57 416.913L145.14 429.647H149.909L154.562 416.828L156.208 416.452V413.988L148.63 414.134V416.452L148.638 416.46ZM263.482 419.446C263.482 415.239 261.806 413.704 257.413 413.704C254.634 413.704 251.136 414.863 251.136 414.863L251.335 419.154H253.938L254.374 417.327C254.374 417.327 255.445 416.89 256.915 416.89C258.385 416.89 259.142 417.527 259.142 419.008V420.605H257.122C252.728 420.605 250.149 421.971 250.149 425.387C250.149 428.288 251.856 429.939 254.657 429.939C257.114 429.939 259.341 427.766 259.341 427.766L259.862 429.655L265.649 429.455V427.137L263.482 426.615V419.453V419.446ZM259.142 425.011C259.142 425.011 257.581 426.692 256.05 426.692C254.948 426.692 254.343 426.055 254.343 424.949C254.343 423.644 255.239 423.061 257.497 423.061H259.142V425.003V425.011ZM298.263 407.172L291.581 407.402V409.72L293.893 410.296V426.592L291.581 427.314V429.632H300.866V427.314L298.263 426.592V407.164V407.172ZM246.245 418.916C246.245 415.754 244.653 413.75 241.851 413.75C239.28 413.75 236.532 415.984 236.532 415.984L236.333 413.98L230.202 414.126V416.444L232.513 417.166V426.592L230.202 427.314V429.632H238.445V427.314L236.853 426.592V419.024C236.853 419.024 238.154 417.373 239.946 417.373C241.163 417.373 241.913 418.363 241.913 419.691V426.592L240.321 427.314V429.632H248.273V427.314L246.253 426.592V418.908L246.245 418.916ZM308.581 413.988L302.014 414.218V416.536L304.325 417.12V426.6L302.014 427.321V429.639H310.602V427.321L308.581 426.6V413.988V413.988ZM288.114 413.988L281.462 414.134V416.452L283.774 417.174V426.6L281.462 427.321V429.639H290.134V427.321L288.114 426.6V413.988V413.988ZM218.429 426.462H214.204L221.43 416.69V413.996H209.283V419.3H211.885L212.321 417.181H216.286L208.938 426.984V429.655H221.514V423.998H218.912L218.422 426.462H218.429ZM157.915 410.196L159.331 412.315L166.327 408.054L164.36 405.038L157.907 410.204L157.915 410.196ZM163.931 413.996L157.364 414.226V416.544L159.675 417.128V426.607L157.364 427.329V429.647H165.952V427.329L163.931 426.607V413.996V413.996ZM184.406 413.704C182.21 413.704 180.763 414.863 180.273 415.239V407.179L173.767 407.41V409.728L175.933 410.304V429.355C175.933 429.355 178.765 429.993 181.949 429.993C187.499 429.993 190.338 426.83 190.338 421.38C190.338 416.506 188.287 413.696 184.406 413.696V413.704ZM182.409 426.523C180.931 426.523 180.265 426.293 180.265 426.293V418.494C180.265 418.494 181.276 417.189 183.013 417.189C185.034 417.189 185.845 418.786 185.845 421.687C185.845 424.589 184.919 426.531 182.401 426.531L182.409 426.523ZM200.22 413.704C195.36 413.704 192.497 417.035 192.497 422.117C192.497 427.198 195.046 429.946 200.013 429.946C203.718 429.946 206.604 427.513 206.604 427.513L205.364 425.103C205.364 425.103 202.907 426.469 200.503 426.469C198.505 426.469 197.181 425.103 197.005 422.785H206.604C206.604 422.7 206.78 421.626 206.78 420.52C206.78 416.375 204.522 413.704 200.212 413.704H200.22ZM197.066 420.083C197.296 418.371 198.306 417.181 199.929 417.181C201.552 417.181 202.302 418.425 202.302 420.083H197.066Z" fill="#9B9B9B"/>
        </g>
        <rect x="303" y="295" width="444" height="146" fill="url(#paint2_linear_506_4259)"/>
    </g>
</svg>
