<?xml version="1.0" standalone="no"?>
<!DOCTYPE svg PUBLIC "-//W3C//DTD SVG 20010904//EN"
 "http://www.w3.org/TR/2001/REC-SVG-20010904/DTD/svg10.dtd">
<svg version="1.0" xmlns="http://www.w3.org/2000/svg"
 width="446.000000pt" height="251.000000pt" viewBox="0 0 446.000000 251.000000"
 preserveAspectRatio="xMidYMid meet">

<g transform="translate(0.000000,251.000000) scale(0.100000,-0.100000)"
fill="#000000" stroke="none">
<path d="M2106 2038 c-22 -6 -59 -23 -82 -37 -97 -60 -184 -121 -184 -129 0
-4 -40 -48 -89 -96 -50 -51 -107 -119 -131 -159 -119 -199 -266 -344 -402
-398 -60 -23 -84 -42 -104 -80 -10 -20 -28 -30 -76 -44 -224 -62 -302 -99
-418 -196 -144 -120 -184 -135 -579 -217 -40 -9 -54 -32 -19 -32 62 -1 360 73
473 117 13 4 12 -1 -1 -33 -25 -60 -14 -121 28 -160 35 -31 36 -31 174 -38 76
-4 227 -12 334 -18 232 -13 481 -6 640 18 138 22 168 22 285 5 147 -23 598
-17 627 7 13 10 63 8 264 -13 137 -14 303 -34 369 -45 390 -63 495 -65 608
-11 38 18 78 46 93 65 l27 33 75 -24 c100 -32 255 -48 356 -37 48 6 81 14 84
21 3 10 -22 12 -115 7 -126 -7 -210 2 -319 36 -92 28 -296 133 -404 208 -173
120 -425 392 -709 766 -231 304 -370 422 -556 472 -69 19 -202 25 -249 12z
m229 -35 c164 -37 291 -134 465 -357 47 -60 113 -143 148 -185 35 -43 62 -85
62 -98 0 -13 -2 -23 -4 -23 -3 0 -19 25 -36 56 -23 39 -36 52 -43 45 -6 -6
-11 -57 -12 -113 -3 -136 -31 -248 -64 -248 -9 0 -25 -13 -36 -29 -11 -15 -35
-45 -53 -66 -26 -29 -36 -35 -43 -24 -6 11 -14 8 -36 -13 -28 -27 -29 -27 -41
-7 -12 18 -15 19 -30 7 -22 -18 -78 -16 -98 4 -14 13 -6 16 74 21 143 9 194
39 243 142 28 59 39 147 23 189 -14 36 -116 13 -201 -45 -34 -24 -54 -30 -100
-31 -32 -1 -77 -10 -101 -20 -57 -23 -57 -23 -32 12 12 17 19 38 16 48 -4 13
6 27 37 50 41 32 107 107 107 123 0 4 -21 11 -47 14 -85 12 -138 31 -135 48 1
9 -8 23 -20 32 -19 13 -21 17 -8 25 21 13 12 18 -91 46 -85 23 -289 117 -289
134 0 4 25 10 55 12 103 9 89 24 -60 69 -60 18 -112 34 -115 36 -7 6 48 49
128 100 115 73 180 81 337 46z m-310 -215 l40 -11 -49 -8 c-85 -13 -93 -24
-38 -52 165 -84 216 -108 269 -124 35 -10 63 -24 63 -31 0 -7 14 -21 31 -31
30 -18 30 -19 9 -26 -11 -4 -20 -11 -18 -17 3 -9 98 -35 196 -54 33 -7 16 -31
-74 -105 -64 -54 -73 -65 -60 -74 14 -11 12 -17 -14 -51 -26 -34 -38 -64 -26
-64 2 0 37 16 77 35 62 30 75 33 82 20 6 -11 13 -13 27 -5 10 5 25 7 34 4 8
-3 42 13 78 35 64 42 162 80 175 68 15 -16 3 -127 -21 -180 -41 -92 -97 -119
-250 -119 -73 0 -93 -4 -109 -19 -39 -36 -110 -60 -221 -75 -196 -26 -308 -17
-433 33 -103 41 -142 104 -150 244 -7 113 10 204 56 309 21 47 50 123 64 170
16 53 38 98 56 120 17 19 30 40 31 47 0 11 8 9 175 -39z m-284 -109 c-12 -34
-21 -67 -21 -72 0 -23 -64 -147 -76 -147 -7 0 -42 -16 -78 -35 -36 -19 -66
-32 -66 -29 0 4 24 37 54 73 29 37 65 89 79 117 25 50 116 168 124 160 2 -2
-5 -32 -16 -67z m-101 -254 c0 -3 -7 -47 -15 -98 -11 -71 -13 -111 -5 -170 19
-148 66 -205 214 -254 73 -24 95 -27 226 -26 182 0 257 13 345 58 l69 35 24
-31 c19 -23 30 -29 47 -25 16 4 25 1 29 -11 6 -14 10 -13 31 7 20 19 25 20 25
7 0 -27 20 -30 45 -7 15 14 25 18 30 11 9 -16 29 -2 81 59 26 30 54 55 63 55
22 0 58 70 77 148 l17 66 31 -16 c50 -26 136 -85 136 -94 0 -4 -14 -17 -30
-29 -57 -41 -170 -239 -170 -298 0 -17 -10 -20 -81 -25 -63 -4 -89 -2 -117 11
-32 15 -82 17 -347 19 -250 2 -331 6 -419 21 -103 18 -110 18 -124 1 -14 -16
-18 -16 -81 2 -36 10 -78 19 -93 19 -18 0 -28 5 -28 14 0 8 -8 17 -17 20 -10
3 -26 26 -37 51 -30 75 -136 206 -214 266 l-34 26 82 54 c101 67 222 139 232
139 5 0 8 -2 8 -5z m1375 -137 c6 1 11 13 13 27 2 15 7 25 12 23 4 -2 47 -52
95 -111 l86 -108 -68 35 c-37 19 -95 53 -128 75 -33 23 -66 41 -72 41 -9 0
-13 20 -13 68 l1 67 32 -59 c18 -33 37 -59 42 -58z m-1640 -130 c37 -34 84
-84 105 -112 37 -51 74 -116 68 -120 -6 -4 -151 -27 -152 -24 -37 95 -133 219
-197 254 l-24 12 25 10 c14 6 41 17 60 26 19 8 38 15 41 16 3 0 36 -28 74 -62z
m-120 -80 c52 -54 115 -161 103 -174 -4 -4 -54 3 -110 15 -100 22 -330 41
-317 27 4 -4 51 -12 105 -17 54 -5 168 -22 254 -39 85 -16 214 -36 285 -44 72
-9 150 -22 175 -31 25 -9 53 -14 63 -11 23 6 47 -3 47 -17 0 -23 36 -48 89
-63 31 -9 67 -27 81 -40 38 -35 100 -53 275 -80 88 -13 176 -29 195 -34 35 -9
35 -9 -10 -6 -27 1 -54 -3 -68 -12 -19 -13 -54 -14 -210 -8 -103 4 -231 13
-285 22 -93 13 -107 13 -240 -7 -174 -27 -471 -31 -857 -11 -279 14 -288 17
-317 77 -14 30 -15 40 -4 77 17 55 34 78 125 171 98 99 138 119 414 203 67 20
122 41 122 46 0 23 39 2 85 -44z m1949 20 l44 -21 -53 -49 c-65 -59 -132 -156
-141 -204 l-6 -35 -57 3 c-48 3 -56 6 -59 24 -5 33 83 194 137 252 55 58 70
62 135 30z m91 -58 c3 -6 -1 -7 -9 -4 -18 7 -21 14 -7 14 6 0 13 -4 16 -10z
m-4 -23 c44 -21 214 -166 205 -174 -10 -10 -268 -43 -340 -43 l-78 0 7 28 c10
41 43 91 104 155 30 31 54 57 55 57 1 0 22 -10 47 -23z m-1717 -132 c20 -15
19 -15 -1 -15 -11 0 -42 3 -69 7 -36 5 -43 8 -29 14 32 12 79 9 99 -6z m438
-80 c76 -12 159 -15 370 -13 266 3 274 2 315 -19 38 -21 48 -22 134 -14 52 5
99 6 106 4 20 -8 341 16 440 32 145 24 150 23 258 -50 53 -36 136 -85 185
-110 50 -25 90 -49 90 -53 0 -16 -56 -61 -100 -81 -25 -10 -80 -25 -122 -32
-84 -14 -130 -10 -428 36 -85 13 -198 29 -250 35 -52 6 -165 20 -250 31 -85
11 -257 33 -381 48 -237 30 -295 46 -313 87 -8 17 -22 23 -64 28 -66 8 -112
30 -112 55 0 10 -10 23 -22 29 -21 10 -19 11 12 7 19 -2 79 -12 132 -20z"/>
<path d="M1830 1692 c0 -5 17 -14 38 -21 20 -7 43 -15 50 -17 6 -3 12 -1 12 6
0 12 -59 40 -85 40 -8 0 -15 -4 -15 -8z"/>
<path d="M1890 1630 c0 -5 4 -10 9 -10 6 0 13 5 16 10 3 6 -1 10 -9 10 -9 0
-16 -4 -16 -10z"/>
<path d="M2106 1571 c-4 -5 10 -19 29 -31 19 -12 40 -31 46 -42 8 -15 14 -17
22 -9 8 8 4 18 -14 37 -30 32 -76 57 -83 45z"/>
<path d="M1794 1549 c-3 -6 -2 -15 4 -21 13 -13 32 -2 32 18 0 16 -26 19 -36
3z"/>
<path d="M1890 1524 c-8 -14 -36 -44 -62 -65 -28 -24 -51 -54 -59 -76 -11 -34
-10 -38 11 -55 20 -16 70 -25 70 -12 0 3 -13 10 -30 15 -48 17 -41 53 24 113
61 58 92 106 68 106 -5 0 -15 -12 -22 -26z"/>
<path d="M2007 1463 c-13 -12 -7 -33 8 -33 8 0 15 9 15 20 0 20 -11 26 -23 13z"/>
<path d="M1680 1245 c0 -17 37 -58 64 -72 33 -17 123 -21 149 -7 10 6 -12 9
-64 9 -80 0 -81 0 -115 37 -19 21 -34 35 -34 33z"/>
<path d="M2745 1189 c4 -13 0 -28 -12 -41 -22 -25 -90 -57 -120 -58 -13 0 -23
-4 -23 -10 0 -16 51 -11 95 9 72 32 126 121 74 121 -16 0 -19 -4 -14 -21z"/>
</g>
</svg>
